<svg width="162" height="51" viewBox="0 0 162 51" fill="none" xmlns="http://www.w3.org/2000/svg">
<g clip-path="url(#clip0_1632_12533)">
<path d="M160.97 42.8024C160.97 43.3789 160.851 43.9497 160.619 44.4822C160.388 45.0148 160.048 45.4986 159.621 45.906C159.193 46.3134 158.685 46.6365 158.127 46.8567C157.568 47.0768 156.97 47.1899 156.365 47.1893H5.68083C4.45953 47.1905 3.28772 46.729 2.42312 45.9063C1.55851 45.0837 1.0719 43.9672 1.07031 42.8024V7.8184C1.0719 6.65307 1.55832 5.53598 2.42275 4.7124C3.28718 3.88883 4.45897 3.42608 5.68083 3.42578H156.364C156.969 3.42578 157.568 3.53941 158.126 3.76017C158.685 3.98094 159.193 4.30451 159.62 4.71242C160.048 5.12032 160.387 5.60457 160.618 6.1375C160.85 6.67043 160.969 7.2416 160.968 7.8184L160.97 42.8024Z" fill="white"/>
<path d="M156.364 48.2097H5.67938C4.17487 48.2094 2.73194 47.6399 1.66719 46.6261C0.602449 45.6124 0.00286266 44.2372 0 42.8023L0 7.81942C0.0022257 6.38381 0.601417 5.00766 1.66613 3.99286C2.73084 2.97806 4.17413 2.40746 5.67938 2.40625L156.362 2.40625C157.868 2.40807 159.31 2.97885 160.375 3.99353C161.44 5.0082 162.039 6.384 162.042 7.81942V42.8023C162.044 45.7849 159.492 48.2097 156.364 48.2097Z" fill="#A6A6A6"/>
<path d="M160.97 42.8024C160.97 43.3789 160.851 43.9497 160.619 44.4822C160.388 45.0148 160.048 45.4986 159.621 45.906C159.193 46.3134 158.685 46.6365 158.127 46.8567C157.568 47.0768 156.97 47.1899 156.365 47.1893H5.68083C4.45953 47.1905 3.28772 46.729 2.42312 45.9063C1.55851 45.0837 1.0719 43.9672 1.07031 42.8024V7.8184C1.0719 6.65307 1.55832 5.53598 2.42275 4.7124C3.28718 3.88883 4.45897 3.42608 5.68083 3.42578H156.364C156.969 3.42578 157.568 3.53941 158.126 3.76017C158.685 3.98094 159.193 4.30451 159.62 4.71242C160.048 5.12032 160.387 5.60457 160.618 6.1375C160.85 6.67043 160.969 7.2416 160.968 7.8184L160.97 42.8024Z" fill="black"/>
<path d="M36.1834 25.067C36.1486 21.3754 39.3527 19.5794 39.4993 19.4958C37.6846 16.9725 34.8719 16.6277 33.8835 16.6002C31.5212 16.3631 29.2298 17.9483 28.0264 17.9483C26.799 17.9483 24.9459 16.6231 22.9487 16.662C20.3786 16.6998 17.9743 18.119 16.6556 20.3228C13.9342 24.8162 15.9639 31.4194 18.5712 35.0515C19.8754 36.8314 21.3995 38.8164 23.3943 38.7465C25.3458 38.6709 26.0748 37.561 28.4299 37.561C30.7634 37.561 31.448 38.7465 33.4824 38.7019C35.5769 38.6709 36.8956 36.915 38.1542 35.1202C39.6614 33.0825 40.2667 31.0735 40.2907 30.9704C40.2427 30.9544 36.2242 29.4905 36.1834 25.067ZM32.3403 14.2109C33.3899 12.959 34.1081 11.2558 33.9087 9.52734C32.3895 9.59149 30.4896 10.5296 29.3955 11.754C28.4275 12.833 27.5628 14.6015 27.7862 16.2646C29.4928 16.386 31.245 15.4433 32.3403 14.2109Z" fill="white"/>
<path d="M156.363 2.40625H75.6523L107.265 48.2097H156.363C157.868 48.2085 159.311 47.6382 160.376 46.6239C161.44 45.6096 162.04 44.234 162.043 42.7988V7.81942C162.04 6.38391 161.441 5.00793 160.376 3.99319C159.312 2.97846 157.869 2.40776 156.363 2.40625Z" fill="url(#paint0_linear_1632_12533)"/>
<path d="M66.7507 32.8554H64.0233L62.5293 28.378H57.3363L55.9132 32.8554H53.2578L58.404 17.6124H61.5817L66.7507 32.8554ZM62.0789 26.4995L60.7278 22.5193C60.5849 22.1126 60.3159 21.1551 59.922 19.6477H59.8739C59.7154 20.296 59.462 21.2536 59.1149 22.5193L57.7867 26.4995H62.0789ZM79.9589 27.2246C79.9589 29.0939 79.4269 30.5714 78.3617 31.6561C77.4081 32.6217 76.2227 33.1039 74.8092 33.1039C73.2828 33.1039 72.1851 32.585 71.5185 31.545V37.3121H68.9581V25.4767C68.9581 24.3027 68.9256 23.0988 68.8632 21.8641H71.115L71.2579 23.6062H71.306C72.1599 22.2936 73.4557 21.6373 75.1947 21.6373C76.5542 21.6373 77.6891 22.1493 78.597 23.1744C79.5038 24.2019 79.9589 25.5511 79.9589 27.2246ZM77.3504 27.3139C77.3504 26.2441 77.0982 25.3621 76.5914 24.6669C76.0378 23.9441 75.2944 23.5822 74.3624 23.5822C73.7307 23.5822 73.1567 23.7838 72.6438 24.1812C72.1298 24.5821 71.7936 25.1056 71.6362 25.7539C71.566 25.9963 71.5261 26.2458 71.5173 26.4972V28.331C71.5173 29.1294 71.7743 29.804 72.2884 30.3561C72.8024 30.9059 73.4701 31.1819 74.2916 31.1819C75.2559 31.1819 76.0066 30.8257 76.5434 30.119C77.0814 29.41 77.3504 28.4753 77.3504 27.3139ZM93.214 27.2246C93.214 29.0939 92.682 30.5714 91.6167 31.6561C90.662 32.6217 89.4778 33.1039 88.0631 33.1039C86.5366 33.1039 85.439 32.585 84.7724 31.545V37.3121H82.212V25.4767C82.212 24.3027 82.1795 23.0988 82.1171 21.8641H84.3689L84.5118 23.6062H84.5599C85.4125 22.2936 86.7084 21.6373 88.4486 21.6373C89.8069 21.6373 90.9418 22.1493 91.8521 23.1744C92.7577 24.2019 93.214 25.5511 93.214 27.2246ZM90.6043 27.3139C90.6043 26.2441 90.3509 25.3621 89.8441 24.6669C89.2905 23.9441 88.5495 23.5822 87.6175 23.5822C86.9858 23.5822 86.4117 23.7838 85.8965 24.1812C85.3825 24.5821 85.0474 25.1056 84.8901 25.7539C84.812 26.0563 84.77 26.3025 84.77 26.4972V28.331C84.77 29.1294 85.0282 29.804 85.5398 30.3561C86.0539 30.9047 86.7216 31.1819 87.5455 31.1819C88.511 31.1819 89.2616 30.8257 89.7973 30.119C90.3353 29.41 90.6043 28.4753 90.6043 27.3139ZM108.034 28.5796C108.034 29.8773 107.558 30.9322 106.613 31.7466C105.573 32.6354 104.121 33.081 102.26 33.081C100.54 33.081 99.1612 32.7649 98.1212 32.1315L98.7133 30.0961C99.8362 30.7306 101.07 31.0468 102.412 31.0468C103.378 31.0468 104.128 30.8383 104.664 30.4248C105.201 30.0102 105.472 29.4558 105.472 28.764C105.472 28.1443 105.248 27.6255 104.807 27.2028C104.364 26.7813 103.631 26.3884 102.602 26.0276C99.8037 25.0323 98.4034 23.5765 98.4034 21.6614C98.4034 20.4106 98.8982 19.3866 99.8854 18.586C100.873 17.7865 102.182 17.3867 103.81 17.3867C105.265 17.3867 106.476 17.6284 107.438 18.1106L106.796 20.1013C105.89 19.634 104.868 19.4003 103.725 19.4003C102.822 19.4003 102.113 19.6122 101.606 20.0337C101.18 20.4106 100.964 20.8699 100.964 21.4151C100.964 22.0164 101.21 22.5158 101.7 22.9076C102.125 23.2684 102.901 23.6612 104.023 24.0827C105.399 24.6119 106.41 25.2281 107.058 25.936C107.71 26.6439 108.034 27.527 108.034 28.5796ZM116.521 23.6967H113.699V29.0332C113.699 30.3905 114.196 31.0674 115.193 31.0674C115.651 31.0674 116.03 31.0307 116.33 30.954L116.401 32.8084C115.897 32.9882 115.233 33.0787 114.41 33.0787C113.399 33.0787 112.608 32.7843 112.038 32.1956C111.47 31.6069 111.184 30.6207 111.184 29.2325V23.6922H109.503V21.8595H111.184V19.847L113.699 19.1231V21.8595H116.521V23.6967ZM129.23 27.2692C129.23 28.9587 128.723 30.3458 127.712 31.4305C126.654 32.5473 125.246 33.1039 123.492 33.1039C121.798 33.1039 120.452 32.569 119.448 31.5004C118.444 30.4294 117.942 29.0801 117.942 27.4525C117.942 25.7493 118.461 24.3542 119.495 23.2695C120.531 22.1837 121.927 21.6407 123.681 21.6407C125.372 21.6407 126.731 22.1768 127.759 23.2466C128.741 24.2843 129.23 25.6244 129.23 27.2692ZM126.576 27.3254C126.576 26.3186 126.348 25.4549 125.89 24.7322C125.353 23.8594 124.585 23.423 123.589 23.423C122.563 23.423 121.777 23.8594 121.241 24.7322C120.782 25.4549 120.554 26.3334 120.554 27.3712C120.554 28.3791 120.782 29.2451 121.241 29.9655C121.795 30.8383 122.567 31.2747 123.567 31.2747C124.546 31.2747 125.314 30.8291 125.868 29.9438C126.339 29.2038 126.576 28.3345 126.576 27.3254ZM137.556 24.0117C137.29 23.9659 137.02 23.9432 136.749 23.9441C135.848 23.9441 135.152 24.2671 134.662 24.9177C134.237 25.4904 134.023 26.2143 134.023 27.0883V32.8554H131.462V25.3255C131.465 24.1717 131.44 23.018 131.388 21.8652H133.618L133.712 23.9682H133.783C134.054 23.2454 134.479 22.6624 135.063 22.226C135.597 21.8447 136.246 21.6382 136.914 21.6373C137.15 21.6373 137.364 21.6533 137.554 21.682L137.556 24.0117ZM149.007 26.8397C149.014 27.2109 148.983 27.5819 148.914 27.9473H141.232C141.261 29.0332 141.633 29.8647 142.347 30.4374C142.994 30.9483 143.831 31.2048 144.859 31.2048C145.997 31.2048 147.034 31.033 147.967 30.686L148.368 32.38C147.278 32.8336 145.991 33.0592 144.505 33.0592C142.718 33.0592 141.315 32.5576 140.294 31.5565C139.276 30.5543 138.766 29.2073 138.766 27.5201C138.766 25.8638 139.24 24.4836 140.19 23.3829C141.184 22.2077 142.528 21.6201 144.219 21.6201C145.88 21.6201 147.137 22.2077 147.991 23.3829C148.668 24.3141 149.007 25.4687 149.007 26.8397ZM146.566 26.2063C146.584 25.4813 146.416 24.857 146.069 24.329C145.625 23.6486 144.943 23.3096 144.029 23.3096C143.192 23.3096 142.51 23.6406 141.991 24.3049C141.565 24.833 141.312 25.4675 141.234 26.204L146.566 26.2063Z" fill="white"/>
</g>
<defs>
<linearGradient id="paint0_linear_1632_12533" x1="118.846" y1="48.3313" x2="118.846" y2="-116.858" gradientUnits="userSpaceOnUse">
<stop stop-color="#1A1A1A" stop-opacity="0.1"/>
<stop offset="0.123" stop-color="#212121" stop-opacity="0.151"/>
<stop offset="0.308" stop-color="#353535" stop-opacity="0.227"/>
<stop offset="0.532" stop-color="#575757" stop-opacity="0.318"/>
<stop offset="0.783" stop-color="#858585" stop-opacity="0.421"/>
<stop offset="1" stop-color="#B3B3B3" stop-opacity="0.51"/>
</linearGradient>
<clipPath id="clip0_1632_12533">
<rect width="162" height="51" fill="white"/>
</clipPath>
</defs>
</svg>
